# xmcd
#
# Track frame offsets:
#	150
#	16927
#	32227
#	58571
#
# Disc length: 1489 seconds
#
# Revision: 0
# Processed by: cddbd v1.5.1PL0 Copyright (c) Steve Scherf et al.
# Submitted via: dBpowerAMP V4.0
#
DISCID=2905cf04
DTITLE=Gretchen Wilson - Redneck Woman (UK single)
DYEAR=2004
DGENRE=Country
TTITLE0=Redneck Woman
TTITLE1=Rebel Child
TTITLE2=It Ain't Easy
TTITLE3=DATA
EXTD=Enhanced:  Redneck Woman video
EXTT0=
EXTT1=
EXTT2=
EXTT3=
PLAYORDER=
